<svg id="Layer_2" xmlns="http://www.w3.org/2000/svg" viewBox="0 0 246.25 438.35"><defs><style>.cls-1 {
fill: #ffffff;
}</style></defs><g id="Layer_1-2" data-name="Layer_1"><g><rect class="cls-1" x="240.31" y="306.38" width="5.91" height="60.12"/><polygon class="cls-1" points="45.06 306.38 45.06 366.51 43.15 366.51 7.1 316.82 7.1 366.51 2.45 366.51 2.45 310.4 0 307.02 0 306.38 8.42 306.38 40.97 351.27 40.97 306.38 45.06 306.38"/><path class="cls-1" d="M151.75 306.38c-4.76-2.54-10.2-3.98-15.97-3.98s-11.21 1.44-15.97 3.98c-10.73 5.72-18.03 17.02-18.03 30.03s7.36 24.4 18.16 30.1c4.73 2.5 10.12 3.91 15.84 3.91s11.11-1.41 15.84-3.91c10.8-5.7 18.16-17.04 18.16-30.1s-7.3-24.31-18.03-30.03zM142.55 366.51c-2.17.6-4.44.91-6.77.91s-4.6-.32-6.77-.91c-12.2-3.35-21.24-15.56-21.24-30.1s8.92-26.58 21-30.03c2.24-.64 4.59-.98 7.01-.98s4.77.34 7.01.98c12.08 3.45 21 15.58 21 30.03s-9.04 26.74-21.24 30.1z"/><g><path class="cls-1" d="M67.7 427.01h4.2c2.33.0 3.78 1.3 3.78 3.36.0 1.28-.89 2.25-1.87 2.54.98.17 1.56.76 1.67 1.92l.31 3.26h-1.36l-.28-3.12c-.08-.92-.61-1.34-1.89-1.34h-3.22v4.46H67.7v-11.08zM72.07 432.32c1.34.0 2.2-.7 2.2-1.98s-.84-2.01-2.37-2.01h-2.86v4h3.03z"/><path class="cls-1" d="M84.75 427.01h6.96v1.31h-5.62v3.57h5.43v1.28h-5.43v3.61h5.74v1.31h-7.09v-11.08z"/><path class="cls-1" d="M100.21 434.55l1.41-.09c.22 1.65 1.23 2.58 3.01 2.58 1.55.0 2.45-.61 2.45-1.75.0-1.03-.52-1.65-3.17-2.31-2.56-.64-3.47-1.4-3.47-3.06.0-1.86 1.41-3.15 3.68-3.15 2.44.0 3.87 1.5 4.12 3.53l-1.41.09c-.19-1.34-1.09-2.31-2.75-2.31-1.37.0-2.25.72-2.25 1.78s.56 1.42 2.9 2c2.78.69 3.73 1.75 3.73 3.34.0 1.94-1.62 3.15-3.89 3.15-2.56.0-4.2-1.55-4.39-3.79z"/><path class="cls-1" d="M117.01 427.01h1.34v11.08h-1.34v-11.08z"/><path class="cls-1" d="M127.39 427.01h3.43c3.4.0 5.32 2 5.32 5.56s-1.87 5.53-5.23 5.53h-3.53v-11.08zM130.83 436.79c2.61.0 3.92-1.41 3.92-4.21s-1.31-4.25-3.92-4.25h-2.09v8.46h2.09z"/><path class="cls-1" d="M144.52 427.01h6.96v1.31h-5.62v3.57h5.43v1.28h-5.43v3.61h5.74v1.31h-7.09v-11.08z"/><path class="cls-1" d="M160.34 427.01h1.9l5.48 9.74v-9.74h1.34v11.08h-2l-5.39-9.55v9.55h-1.34v-11.08z"/><path class="cls-1" d="M177.59 432.57c0-3.59 2.01-5.81 4.98-5.81 2.69.0 4.11 1.45 4.57 3.78l-1.42.09c-.31-1.58-1.31-2.56-3.15-2.56-2.12.0-3.57 1.69-3.57 4.5s1.45 4.46 3.57 4.46c1.94.0 2.97-1.08 3.25-2.81l1.42.09c-.41 2.4-2.01 4.03-4.67 4.03-2.97.0-4.98-2.19-4.98-5.78z"/><path class="cls-1" d="M195.92 427.01h6.96v1.31h-5.62v3.57h5.43v1.28h-5.43v3.61H203v1.31h-7.09v-11.08z"/></g><path class="cls-1" d="M126.13.0c1.53.11 3.05.23 4.58.33 15.58.93 30.45 4.69 44.57 11.34 20.62 9.71 37.31 24.05 50.06 42.92 5.79 8.57 10.49 17.86 13.92 27.61s5.81 20.82 6.64 31.56c.84 10.81.17 21.7-1.81 32.36-1.77 9.52-4.65 18.84-8.63 27.67s-9.17 17.3-15.2 25c-.71.91-1.44 1.81-2.17 2.7-17.57 21.23-39.86 35.09-66.69 41.53-11.45 2.75-23.08 3.84-34.83 3.11-32.86-2.04-60.73-14.98-83.34-38.88-15.92-16.84-26.07-36.79-30.76-59.49-.96-4.66-1.64-9.37-2.02-14.11-.78-9.54-.5-19.19.91-28.66.55-3.73 1.28-7.43 2.17-11.09C12.66 56.35 39.24 25.09 74.9 9.89 87.89 4.35 101.43 1.16 115.53.33c1.53-.1 3.05-.22 4.58-.33 2.01.0 4.01.0 6.02.0zm92.98 50.82c.1-.04.19-.09.29-.13-3.14-3.59-6.17-7.28-9.46-10.74-9.58-10.06-20.61-18.19-33.05-24.41-14.85-7.43-30.54-11.62-47.12-12.5-5.69-.3-11.37-.2-17.06.28-6.2.53-12.35 1.4-18.37 2.97-30.96 8.06-55.3 25.41-72.68 52.28C10.81 75.35 4.67 93.81 3.16 113.76c-.5 6.6-.47 13.19.1 19.79.57 6.62 1.56 13.16 3.26 19.58 5.35 20.26 15.17 38.04 29.66 53.21 9.05 9.48 19.37 17.31 31 23.36 2.74 1.42 5.49 2.92 8.4 3.89 5.59 1.85 11.44 2.55 17.31 2.82 8.4.39 16.74-.25 24.98-1.92 11.9-2.41 23.09-6.59 33.04-13.7 2.41-1.72 4.95-3.48 6.78-5.75 3.57-4.43 5.95-9.61 7.36-15.14 1.3-5.1 2.34-10.27 3.48-15.41 1.43-6.44 2.93-12.86 4.22-19.32.86-4.3 1.42-8.66 2.09-13 .63-4.08 1.2-8.16 1.83-12.23 1.07-6.87 3.48-13.36 5.57-19.94 1.78-5.6 3.48-11.24 5.23-16.85 1.18-3.76 2.48-7.49 3.56-11.28 1.42-4.97 3.02-9.87 5.2-14.54 1.09-2.34 2.29-4.7 3.86-6.72 2.59-3.35 5.43-6.52 8.34-9.6 3.18-3.36 6.55-6.53 9.86-9.77.21-.21.55-.28.82-.42zM83.86 236.85c0 .08.0.16.0.24 27.75 8.95 55.4 8.93 82.73-1.74 28.93-11.29 50.18-31.18 64.35-58.57-1.81-1.62-3.49-3.1-5.14-4.61-1.79-1.64-3.64-3.17-5.91-4.13-4.58-1.95-9.02-2.34-13.44.62-6.01 4.03-11.13 8.98-15.71 14.54-4.61 5.59-9.23 11.18-13.89 16.73-3.29 3.91-6.9 7.51-10.81 10.81-3.29 2.77-6.66 5.44-10.03 8.12-1.57 1.25-3.15 2.49-4.81 3.61-8.01 5.42-16.78 9.16-26.09 11.66-7.5 2.01-15.15 3.3-22.92 3.52-3.97.11-7.96-.02-11.93-.16-2.14-.08-4.27-.41-6.41-.63zm77.49-23.98c.29-.19.38-.25.47-.31 4.01-3.02 7.72-6.37 11.1-10.09 6.94-7.64 11.81-16.47 15.22-26.16 3.23-9.19 4.88-18.72 5.98-28.35.71-6.21 1.13-12.44 1.13-18.69.0-6.28-.35-12.54-1.17-18.76-.21-1.59-.53-3.16-.82-4.85-.27.2-.43.28-.54.41-.45.47-.91.93-1.31 1.43-5 6.39-8.41 13.61-10.6 21.37-1.34 4.75-2.22 9.63-3.15 14.48-.64 3.38-.99 6.82-1.5 10.22-.55 3.67-1.12 7.33-1.7 10.99-.8 5.06-1.55 10.12-2.45 15.16-1 5.59-2.27 11.12-3.96 16.55-1.37 4.38-2.78 8.75-4.85 12.87-.59 1.17-1.16 2.35-1.84 3.73zm27.63-31.81c.31-.19.47-.27.6-.38 2.9-2.63 5.94-5.13 8.67-7.92 8.45-8.65 15.03-18.66 20.6-29.32 4.33-8.29 8.31-16.77 12.43-25.17.29-.6.49-1.24.78-1.99-.43.0-.72.0-1 0-3.25.05-6.38.72-9.39 1.89-6.6 2.57-11.96 6.79-16.07 12.53-4.6 6.43-7.41 13.7-9.52 21.24-1.64 5.89-2.99 11.87-4.44 17.81-.9 3.71-1.75 7.43-2.66 11.32zM229.66 67.11c-.43.22-.61.31-.78.41-5.35 3.12-10.12 6.96-14.42 11.41-3.06 3.17-5.89 6.54-8.14 10.31-3.56 5.96-6.35 12.23-7.73 19.13-1.09 5.45-1.8 10.93-1.99 16.46-.16 4.56-.04 9.13.0 13.69.01 1.39.18 2.78.27 4.16.1.02.2.04.3.06 13.97-23.76 24.87-48.85 32.48-75.63zm7.47 17.49c-.18.0-.24.0-.29.02-.11.04-.21.1-.31.16-7.71 4.19-13.27 10.56-17.73 17.94-2.61 4.31-4.55 8.97-6.16 13.75-.44 1.29-.74 2.63-1.17 4.16.85-.27 1.46-.46 2.05-.67 5.53-1.96 10.85-4.4 16.01-7.2 4.17-2.26 8.23-4.69 12.02-7.55.24-.18.45-.62.41-.9-.78-5.18-1.89-10.29-3.43-15.31-.46-1.48-.94-2.95-1.4-4.4zM210.6 162.18c3.71.79 7.28.73 10.86.21 5.87-.86 11.29-3.03 16.61-5.52.54-.25.83-.58.96-1.14.75-3.24 1.56-6.46 2.27-9.7.37-1.71.58-3.46.87-5.2-3.4-.82-6.68-.84-9.93-.02-5.35 1.34-9.52 4.52-13.15 8.52-2.99 3.29-5.27 7.08-7.49 10.9-.36.62-.66 1.29-1 1.96zm10.75-18.97c.5-.05.62-.05.73-.08.74-.2 1.48-.38 2.21-.62 5.67-1.83 11.14-4.14 16.5-6.73 2.14-1.03 2.23-1.01 2.28-3.4.11-5.21.15-10.43.17-15.64.0-1.26-.17-2.51-.27-3.88-.41.21-.69.34-.97.5-3.68 2.15-6.79 4.95-9.51 8.22-2.98 3.58-5.33 7.56-7.23 11.78-1.42 3.15-2.57 6.42-3.92 9.84zM214.37 57.57c-7.97 5.86-14.24 13.08-17.87 22.36-2.97 7.61-3.53 15.56-2.77 23.64 10.18-13.86 17.03-29.19 20.64-46zm5.09-6.42c-3.35 4.56-7.24 20.36-6.18 24.88 5.39-3.19 10.5-6.7 15.36-10.67-2.76-4.94-5.69-9.67-9.18-14.21zM225.75 89.23c3.92-1.5 7.46-3.55 11.13-5.81-2.03-4.77-4.05-9.5-6.07-14.23-.1.03-.19.06-.29.09-2.8 6.33-4.39 12.96-4.77 19.95zM223.24 165.77c2.29 3.62 5.04 6.62 8.57 9.03 2.2-4.67 4.12-9.35 5.71-14.29-5.4.28-10.09 1.99-14.28 5.27zm19.03-59.58c-1.21.9-2.2 1.63-3.17 2.38-1.03.79-1.79 1.78-2.13 3.06-.31 1.16.16 1.77 1.4 1.81.23.0.49.0.69-.09 1.15-.51 2.3-1.03 3.43-1.58.15-.07.33-.32.32-.46-.15-1.63-.34-3.26-.54-5.11z"/></g></g></svg>